/* XPM */
static char *f47a29936f724c0de9e7a986881c0a6djkI4BpclF5MY1E2I[] = {
/* columns rows colors chars-per-pixel */
"48 48 249 2 ",
"   c #0C0300",
".  c #0A0700",
"X  c #130300",
"o  c #1A0500",
"O  c #140B01",
"+  c #1C0C03",
"@  c #1B0C09",
"#  c #1B1103",
"$  c #1C130A",
"%  c #1B1C0B",
"&  c #151404",
"*  c #1C1C12",
"=  c #0F1100",
"-  c #230D02",
";  c #2B0C00",
":  c #280300",
">  c #320C00",
",  c #241304",
"<  c #2B1403",
"1  c #23140B",
"2  c #29150B",
"3  c #221C0B",
"4  c #2B1B0C",
"5  c #271906",
"6  c #341302",
"7  c #331B04",
"8  c #3C1A04",
"9  c #331C0C",
"0  c #3B1D0A",
"q  c #381502",
"w  c #251C12",
"e  c #2C1C13",
"r  c #261714",
"t  c #321E13",
"y  c #301F18",
"u  c #1E2116",
"i  c #2C230D",
"p  c #35220D",
"a  c #3C260A",
"s  c #232314",
"d  c #2C2314",
"f  c #24251A",
"g  c #2B241A",
"h  c #26291C",
"j  c #2C2B1C",
"k  c #2C2A16",
"l  c #332314",
"z  c #3A2414",
"x  c #322A16",
"c  c #3B2A16",
"v  c #33231B",
"b  c #342C1D",
"n  c #3C2A1A",
"m  c #3B251A",
"M  c #3A331C",
"N  c #35311C",
"B  c #2F301E",
"V  c #2B2C22",
"C  c #262920",
"Z  c #342E21",
"A  c #3A2C22",
"S  c #2F3126",
"D  c #343324",
"F  c #3A3423",
"G  c #34342B",
"H  c #3B3529",
"J  c #3B3B2D",
"K  c #383928",
"L  c #3D3E32",
"P  c #461904",
"I  c #43220D",
"U  c #49230B",
"Y  c #462707",
"T  c #432513",
"R  c #4A2612",
"E  c #4D2A14",
"W  c #432C1D",
"Q  c #4B2D1B",
"!  c #432817",
"~  c #532B14",
"^  c #512E1A",
"/  c #592B14",
"(  c #4C321D",
")  c #443519",
"_  c #53321C",
"`  c #5C341C",
"'  c #5C3A1C",
"]  c #573716",
"[  c #54300B",
"{  c #64361B",
"}  c #6C3014",
"|  c #432E23",
" . c #422F28",
".. c #453323",
"X. c #4B3323",
"o. c #433B23",
"O. c #4C3B24",
"+. c #43342B",
"@. c #4C3629",
"#. c #4C3B2B",
"$. c #433D2C",
"%. c #533522",
"&. c #543B25",
"*. c #5C3B24",
"=. c #533C2C",
"-. c #5A3D2C",
";. c #583522",
":. c #433D31",
">. c #4B3C34",
",. c #563E31",
"<. c #633D23",
"1. c #663A24",
"2. c #3D4135",
"3. c #56421B",
"4. c #65491B",
"5. c #6D5118",
"6. c #49422A",
"7. c #54412D",
"8. c #5C422C",
"9. c #594828",
"0. c #444234",
"q. c #4D4B3B",
"w. c #494637",
"e. c #554334",
"r. c #5B4333",
"t. c #534B3B",
"y. c #5C4C3C",
"u. c #584A36",
"i. c #59523A",
"p. c #5C522B",
"a. c #644224",
"s. c #64432B",
"d. c #6C452B",
"f. c #6D4A2C",
"g. c #654C29",
"h. c #784929",
"j. c #6A5529",
"k. c #634632",
"l. c #634B35",
"z. c #654B3A",
"x. c #6A4C36",
"c. c #744D34",
"v. c #774C32",
"b. c #6D5B3C",
"n. c #685538",
"m. c #72543C",
"M. c #775738",
"N. c #745B2B",
"B. c #7A633A",
"V. c #7A632B",
"C. c #7E6018",
"Z. c #554B42",
"A. c #5D5A4C",
"S. c #585546",
"D. c #5E5D50",
"F. c #635B44",
"G. c #635C4A",
"H. c #6A5944",
"J. c #775B45",
"K. c #65574C",
"L. c #696147",
"P. c #73644C",
"I. c #74694B",
"U. c #7D6C4D",
"Y. c #796546",
"T. c #696656",
"R. c #736552",
"E. c #7B6C54",
"W. c #786A56",
"Q. c #7B7257",
"!. c #7E7041",
"~. c #797667",
"^. c #855939",
"/. c #8C4F30",
"(. c #866A2D",
"). c #856739",
"_. c #91733B",
"`. c #845E43",
"'. c #836C4C",
"]. c #876747",
"[. c #98694A",
"{. c #88744A",
"}. c #94764A",
"|. c #896C52",
" X c #996E52",
".X c #837355",
"XX c #84745B",
"oX c #8A7957",
"OX c #947758",
"+X c #A4785A",
"@X c #A4704C",
"#X c #8B7B64",
"$X c #847B65",
"%X c #977C63",
"&X c #B07E63",
"*X c #7F8174",
"=X c #9D8545",
"-X c #998659",
";X c #A9894C",
":X c #A4875C",
">X c #A99257",
",X c #B1904B",
"<X c #998769",
"1X c #8A8372",
"2X c #988C72",
"3X c #9D9177",
"4X c #8E8B70",
"5X c #A78564",
"6X c #B9886A",
"7X c #A9956C",
"8X c #B6986A",
"9X c #AB9C7B",
"0X c #A89774",
"qX c #B79A78",
"wX c #AF8D71",
"eX c #B4A27B",
"rX c #B8A870",
"tX c #C79879",
"yX c #C18E6F",
"uX c #C4A87C",
"iX c #CCB16B",
"pX c #A79C82",
"aX c #B99B83",
"sX c #A9A687",
"dX c #B8A986",
"fX c #BEB38F",
"gX c #B5AF91",
"hX c #BAB297",
"jX c #A9AC99",
"kX c #B6B6A2",
"lX c #9D9B89",
"zX c #C99B80",
"xX c #C5AA86",
"cX c #D5A588",
"vX c #C6B38C",
"bX c #D2B786",
"nX c #C5B597",
"mX c #D5B79A",
"MX c #D2AD91",
"NX c #E6B596",
"BX c #CBBCA1",
"VX c #FABEA2",
"CX c #CDC199",
"ZX c #EBD694",
"AX c #C9C7B4",
"SX c #CEC3A8",
"DX c #E9C7A9",
"FX c #FEE69C",
"GX c #FADFC2",
/* pixels */
"R.#Xy.G.F $XT.j G G G 2.0.2.J J S.~.A.S.$X$X$X2X<X<XU.%XSXSXXX) ] j.b.b.l.P.'.OX:X_.;X@X:X0X<XpX",
"H.E.F.F.b A.0.% f f C V V h S J K 0.L K ~.~.$X$XP.<X.XpXnXBXb.T M.g.b.Y.P.I.'.].).^.}.}.5X7X2XI.",
"z.W.H.H.b H G f u u u * * * u h J S D J W.~.1XQ.#X<X#XnXBXgX) ( g.g.x.Y.Y.'.Y.:X).}.).8X}.qX<X6.",
"u.E.W.R.b Z H L h u u f V V h * C q.q.0.:.T.R.....c =.$XnX3XO.n.l.n.9.b.Y.-XM.OX{.}.{.7X-X{.b.a ",
"&..XE.Q.b F j G h h C S 2.q.L S S G w.T.0.d 4 d z 4 4 + O.O.M n.e.9.g.B.B.{.B.}.}.{.}.5X7XB.] [ ",
"l.<XQ.E.x F j K j S G G L 0.w.L V w.D.Z.b 3 x 4 5 p l 5 5 4 4 i.F.) l.b.j.4.).B.{.B.b.'.oXj.Y 4.",
"Y.<X.XI.M F F w.V G G V j V G G V :.J b d 4 n c c c l z 5 , , o.lX2X<X5X:X:X8X{.<XoX<X.X9X{.{.}.",
"b.oX.XI.e.F $.q.j S V * * f f w w H $ d l ..z z 9 p 9 7 z p 5   t.AXnXmXuXbXuX8X-X9XnXnXnXvXxXqX",
"b.oXoXQ.o.i.D 0.D G S.f s j V g #.d ..7.y.=.%.Q Q ( ( %.7.O.p , . A.nXvXuX8XbXqXqXdXhXhXnXnXbXbX",
"U.oX2XQ.u.o.N k L L S.h G J J H ..l #.7.k.z.m.l.k.8.-.8.&.O.c i O % pXdXqXuXuXxXqXdXsX2X9XnXxX5X",
"oX.XoXL.6.k 6.D 0.S.T.D J J :.t.l 9 =.l.z.k.x.x.x.8.k.l.r.&.W 5 & . 1XnXeXvXxXdXeX9X9X9X9X9X9XeX",
"n.I.E.Q.6.M q.K G S.D.G w.Z.S.R.W 9 =.k.z.-.k.H.k.%.%.X.Q O..., = . G.AXgXfXnXeXdX<X-X9XdX9X3X9X",
"p.U.Q.$X6.F q.J J S.Z.F A.T.A.G.4 5 @.r.r.-.r.8.%.X.=.@.W @...# O = F AXSXgXnXfXdXeX7X0XdXdXpX3X",
"n.U.XXE.6.k 6.F $.S.q.0.L.G.w.t.l t #.@.=.=.,.X.z ! | W t e e + O . D AXAXhXgXCXvXCXmXdXdXhXkXhX",
"n.L.XXE.F.i x 3 s D G q.T.S.t.G.H 1 4 + o - t m m , X X X X @ w # . D jXkXjXsXsXvXxXeXqX9XsXjXlX",
"U.P.I.I.F.i % % s s s t.~.G.t.T.>.1 t A z o - t m o X e +.v 1 w $ O s ~.~.4XsX4X2X9XeX2X#X$X1X*X",
"P.E.XXi.6.k b s s % s S.T.S.A.:.e l t ,.! 9 7 z.-.9 < z 9 4 v v 1 1 O g i.t.W.Q.Q.Q.S.4X~.0.q.~.",
"P..XQ.F.i.d = % s s h 0.q.Z.A.H 1 | W c 9 ! Q k.%.z z W z W | t @ @ 1 b $.M K F.A.q.G A.A.D J D.",
"l.E.P.n.L.k . % % u s K 0.t.A.+., m #.z.z.%.( r.Q ! X.r.r.r...2 r X @ d F.$XF.u.t.S.Z.:.:.H :.q.",
"9.U.I.n.F.M = % f s f w.S.q.y.#., t @.=.r.-.l.z.z.! 9 W @.| t + @ $ e b L.pX$Xi.e.L.T.Z Z H D Z ",
"b.!..XI.i.N & & f % w S.R.F.H.H...- 4 X.=.< 9 -.W ; o < t t < + O $ d 6.E.3X2XE.z.u.t.d Z Z d h ",
"{.B.!..Xi.x # % * % $ w.R.P.E.P.z 4 z z W z z < - < 9 t z z 2 o @ $ x O.XX9XaXXXJ.F.t.x b F h D ",
"8X-X{.{.p.x 3 g g g 1 #.P.P.Y.n.O.5 , c ..W =.r...@.| z t 2 - o O 3 y.O.J.OX<X'.U.E.y.n d F j K ",
"ZXiX>X{.9.M 3 w j w $ t.XX'.'.Y.P.X.p z z z W | W m t t z 2 + + 3 & F.e.P.'.|.|.%XE.#...+.J j J ",
"ZXrX_.{.9.o.3 d g 1 1 ..#X'.{.{..XJ.9 , c t , t e 1 - 1 2 - + o # x W.O.U.OX].%XM.J.,.e...F G D ",
"iX=XrX>Xp.o.k Z e g d O.#X%XOX{.U.Y.) 9 4 9 | 4 1 1 2 e 2 - + , O H R.7.nXGXxXOXs.H.H.y.w.k j K ",
"FXZXZX>Xj.<X6.b g e d O.H.Y.{.Y.'.'.a 5 c t +. .A v y e 2 - + # # t.R.u.vXDXaX5X;.&.W n t.Z j D ",
"iXiX=XV.-XfXu.S.b d 3 e.%XoX'.'.Y.%X8.+ 5 2 +.Z.S.>.v w 1 + O O , y.H.O.P.'.OXOX0 Q z 4 H g j 0.",
"_.iX=Xj.7XoX6.o.k $.i c XXJ.x.OXM.g.&.- X o v >.Z.+.e $ @ O O O + y.H.7.b.OX<Xx.< Q ..n v A Z :.",
"C.iX>XN.j.n.L.6.k N M M P.b.oX<XY.M.m.7 - X X r r $ @ O X   O 3 4 #.7.p ) '.9X'.< z @.#.v :.Z g ",
",X;X=X_.[ p.I.Q.6.k M ..E.b.Y.' OXMXqXa < o X X       O . . # 3 1 W r.u.b.U.0X3X! z e.#.w A +.b ",
"iX_.>XV.[ 3.p.i.i o.) p <XM.'.qXqX|.s.0 W - 2 + @ X   O O O # $ 4 4 9 c x.P.<XaX%X( ..l 4 +.t.g ",
",X(.;X_.j.!.{.n.) a n.9.OX^.NX+Xs._ I T ! 9 , e e w $ O X O $ $ d d # o T l.m.J.%Xm.x.7.n S.:.d ",
";X(.(.>X}.-X!.3.3.3.9.f.).tX[.[ a._ I T Q z 2 t e e 1 X   @ 1 1 $ H x + 6 '.*.8 d.' m.b.e.G.w.3 ",
"(.4._.}.:Xa 3.7 9.3.Y ' wXtX} [ ].( T %.W c n 1 v @ X + o   O v A n 5 o ( aXR : _ E s.n.y.u.e.x ",
"5.V.5.5.< Y g.x.n.9.Y f.mXh./ { a.m.%.0 =...1 t 1 2 @   X e A F .., - X %XmXq 8 R P _ x.H.O...i ",
"(.4.).}.).N.].g.' ~ E qX5XY ^.<.q k.8.! X.| 4 t e + + A >.:.b 4 - 7 a 7 mX|.; I I q a ( l.&...9 ",
"}.4.).-X}.f.g.' U Y ~ mX^.] ].].s.7 %.J.r.W | 4 v Z.K.>.t 2 1 o < _ E M.mXq 6 R T T T 0 %.8.( 0 ",
"3.).N.4.[ ' <.~ / U ` MXM.a.f. XOX&.! r.z...m | R.e.v , + + 2 p *.' ' wXOX: T R q R ;.%.-.k.I 0 ",
"4.}.Y ] [ [ ~ ` ~ P { cX<.M.M.].%XJ.&.7 - W e...1 , + + - t =.m.f.] ^.xXq q Q 6 0 T ;.;.*.*.P <.",
"].4.' Y U { ` { / / ~ cXd.M.^.].`.].J.Q ; 9 ..m o - o 9 X.J.J.x.f.^.qXM.; E T q ! T T R ^ E R ' ",
"g.3.a.U ~ c.d.1.{ ~ P tXM.v.6Xv.c.s.f.J.s.T W z z < z X.J.J.x.`. X+XqX6 U E P Q ! T T ^ ^ U U ` ",
"' *.a.E ' M.v.1.P ` P zX[.P  X+X Xd.1.|.J.;.m.z.0 -.J.m.s.]. X&X^.cX^.: R R ;.-.%.T Q ;.^ P P ~ ",
"*.a.<.~ ' d.1.1./ / P tX6XP { 6X&X[.v.`.d.<.'.s.;.s.d.f.M.qX6X{ [.zXq U E I *.;.-.Q %.;.R P U ~ ",
"` s.*.E ~ ` ` 1.1./ P &X6X} h./.yXzX6X+Xc.f.|.s.s.c.&X+X+X[.h.{ NX<.6 E _ T R _ ;.;.;.E 0 I _ ~ ",
"~ <.*.U U ` d.d./ { P /.cX} /./.[.tXtX6X].d.M.c.].OXqX6X[.^.[ tXzX; E R I _ _ E _ _ Q I 0 Q ;._ ",
"~ ` ` ~ E <.c.c.{ / P } VX/.} @X/.@X6XcXcX[.`.5X&X5X+X[.h././.NX^ ; %.E 8 _ <.^ R E I 0 T %.&.&.",
"_ E ~ ' ` ` f.c.1.P [ } cX/.} 6X^._.[.yXMX5X+XDXtX X[.^.@Xh.cX6X> 0 X.0 ^ I ^ *.R E I I _ &.%.&."
};
